<?xml version="1.0" encoding="UTF-8"?> <svg xmlns="http://www.w3.org/2000/svg" width="15" height="15" viewBox="0 0 15 15" fill="none"> <path d="M0 0H15V15H0V0Z" fill="#012169"></path> <path d="M1.75781 0L7.47656 5.65625L13.1719 0H15V1.9375L9.375 7.53125L15 13.0938V15H13.125L7.5 9.40625L1.89844 15H0V13.125L5.60156 7.5625L0 2V0H1.75781Z" fill="white"></path> <path d="M9.9375 8.78125L15 13.75V15L8.64844 8.78125H9.9375ZM5.625 9.40625L5.76562 10.5L1.26562 15H0L5.625 9.40625ZM15 0V0.09375L9.16406 5.96875L9.21094 4.59375L13.8281 0H15ZM0 0L5.60156 5.5H4.19531L0 1.3125V0Z" fill="#C8102E"></path> <path d="M5.64844 0V15H9.39844V0H5.64844ZM0 5V10H15V5H0Z" fill="white"></path> <path d="M0 6.03125V9.03125H15V6.03125H0ZM6.39844 0V15H8.64844V0H6.39844Z" fill="#C8102E"></path> </svg> 