<?xml version="1.0" encoding="UTF-8"?> <svg xmlns="http://www.w3.org/2000/svg" width="250" height="46" viewBox="0 0 250 46" fill="none"> <path d="M23.4684 24.1045H0V45.8635H23.4684V24.1045Z" fill="#00AEE6"></path> <path d="M48.1174 0H23.8838V24.1052H48.1174V0Z" fill="#00AEE6"></path> <path d="M43.4763 4.19849H4.5542V42.3493H43.4763V4.19849Z" fill="#00AEE6"></path> <path d="M11.7725 14.5094V37.571H19.3376V7.19629L11.7725 14.5094Z" fill="white"></path> <path d="M36.7014 14.5094V37.571H29.1362V7.19629L36.7014 14.5094Z" fill="white"></path> <path d="M28.0192 20.5029V37.5696H20.4541V13.1819L28.0192 20.5029Z" fill="white"></path> <path d="M56.2412 11.4385V27.3281H59.3966V17.4805L65.7706 27.3281L72.0025 17.5746V27.3281H75.4341V11.4385H72.0025L65.8416 21.1449L59.3966 11.4385H56.2412Z" fill="#6D6E71"></path> <path d="M92.8174 14.6478V11.4385H76.9141V27.3281H92.8174V24.1031H80.0616V20.7761H89.449V17.6688H80.0616V14.6478H92.8174Z" fill="#6D6E71"></path> <path d="M110.397 11.4385H94.2881V14.6478H100.733V27.3281H103.888V14.6478H110.397V11.4385Z" fill="#6D6E71"></path> <path d="M184.43 24.2601V11.4385H180.998V27.3281H182.71H184.43H193.888V24.2601H184.43Z" fill="#6D6E71"></path> <path d="M198.648 11.4385H195.359V27.3281H198.648V11.4385Z" fill="#6D6E71"></path> <path d="M215.952 11.4385H200.12V14.6478H206.494V27.3281H209.649V14.6478H215.952V11.4385Z" fill="#6D6E71"></path> <path d="M246.781 11.4385V22.1885L237.465 11.4385H233.962V27.3281H237.465V16.633L246.781 27.3281H247.854H250V11.4385H246.781Z" fill="#6D6E71"></path> <path d="M141.377 23.346C141.377 23.6631 141.251 23.9673 141.027 24.1922C140.802 24.4171 140.497 24.5445 140.178 24.5466H132.771C132.452 24.5445 132.147 24.4171 131.923 24.1922C131.698 23.9673 131.572 23.6631 131.572 23.346V15.4993C131.572 15.183 131.698 14.8796 131.923 14.6559C132.148 14.4322 132.453 14.3066 132.771 14.3066H140.178C140.496 14.3066 140.801 14.4322 141.026 14.6559C141.251 14.8796 141.377 15.183 141.377 15.4993V23.346ZM140.991 11.4425H132.25C131.324 11.4466 130.436 11.8123 129.778 12.4609C129.12 13.1096 128.744 13.9893 128.732 14.9108V23.8325C128.736 24.7594 129.108 25.6472 129.767 26.3026C130.426 26.958 131.318 27.328 132.25 27.3322H140.991C141.923 27.328 142.815 26.958 143.474 26.3026C144.133 25.6472 144.505 24.7594 144.509 23.8325V14.9108C144.505 13.9839 144.133 13.0961 143.474 12.4407C142.815 11.7853 141.923 11.4153 140.991 11.4111" fill="#6D6E71"></path> <path d="M176.268 23.342C176.268 23.659 176.142 23.9632 175.918 24.1881C175.693 24.4131 175.388 24.5405 175.069 24.5425H167.662C167.343 24.5426 167.036 24.4174 166.809 24.1942C166.581 23.9709 166.451 23.6676 166.447 23.3498V15.5031C166.447 15.1868 166.573 14.8834 166.798 14.6597C167.023 14.436 167.328 14.3104 167.646 14.3104H175.054C175.372 14.3104 175.677 14.436 175.901 14.6597C176.126 14.8834 176.253 15.1868 176.253 15.5031L176.268 23.342ZM175.913 11.4385H167.133C166.208 11.4425 165.321 11.8085 164.664 12.4574C164.007 13.1063 163.633 13.986 163.623 14.9067V23.8285C163.625 24.7547 163.995 25.6424 164.653 26.2981C165.311 26.9537 166.202 27.324 167.133 27.3281H175.913C176.845 27.324 177.736 26.9537 178.394 26.2981C179.051 25.6424 179.422 24.7547 179.424 23.8285V14.9067C179.413 13.986 179.04 13.1063 178.383 12.4574C177.726 11.8085 176.839 11.4425 175.913 11.4385Z" fill="#6D6E71"></path> <path d="M115.302 19.3872V14.6792H123.356C124.523 14.6792 124.894 15.1892 124.894 16.9312C124.894 18.6732 124.618 19.4186 123.261 19.4186L115.302 19.3872ZM127.797 19.2224V14.6478C127.797 12.741 125.864 11.4385 123.758 11.4385H111.925V27.3281H115.357V22.3533H118.283L123.364 27.3281H127.797L122.819 22.3533H124.231C125.114 22.3734 125.972 22.0613 126.633 21.4793C127.294 20.8973 127.71 20.0885 127.797 19.2146" fill="#6D6E71"></path> <path d="M158.723 18.4104C158.723 18.5444 158.697 18.677 158.645 18.8008C158.594 18.9246 158.518 19.037 158.423 19.1317C158.328 19.2265 158.215 19.3016 158.09 19.3529C157.966 19.4041 157.833 19.4305 157.698 19.4305H149.265V14.6518H157.698C157.833 14.6518 157.966 14.6782 158.09 14.7295C158.215 14.7807 158.328 14.8559 158.423 14.9506C158.518 15.0453 158.594 15.1578 158.645 15.2815C158.697 15.4053 158.723 15.538 158.723 15.6719V18.4104ZM158.503 11.4425H145.976V27.3322H149.265V22.3573H158.503C158.966 22.3563 159.425 22.2643 159.853 22.0866C160.281 21.9089 160.67 21.649 160.996 21.3217C161.323 20.9944 161.582 20.6063 161.758 20.1794C161.934 19.7526 162.023 19.2954 162.021 18.8341V14.9108C162.017 13.9839 161.645 13.0961 160.986 12.4407C160.327 11.7853 159.434 11.4153 158.503 11.4111" fill="#6D6E71"></path> <path d="M219.801 20.9214V15.5699C219.801 15.3264 219.899 15.0929 220.072 14.9207C220.245 14.7486 220.48 14.6518 220.724 14.6518H228.195C228.44 14.6518 228.674 14.7486 228.847 14.9207C229.02 15.0929 229.118 15.3264 229.118 15.5699V20.9214H219.801ZM228.968 11.4425H220.164C219.239 11.4466 218.352 11.8126 217.695 12.4614C217.038 13.1103 216.664 13.9901 216.654 14.9108V27.3322H219.809V24.1072H229.126V27.3322H232.486V14.9108C232.484 13.9846 232.114 13.0968 231.456 12.4412C230.799 11.7856 229.907 11.4153 228.976 11.4111" fill="#6D6E71"></path> <path d="M94.8482 36.662H98.0036C98.1127 36.6745 98.2232 36.6611 98.326 36.6229C98.4288 36.5847 98.5211 36.5228 98.5952 36.4423C98.729 36.2463 98.7928 36.0115 98.7767 35.7753V35.3986C98.7929 35.1648 98.7289 34.9325 98.5952 34.7395C98.5211 34.659 98.4288 34.5971 98.326 34.5589C98.2232 34.5207 98.1127 34.5073 98.0036 34.5198H94.9428C94.864 34.5198 94.8324 34.5198 94.8324 34.6375L94.8482 36.662ZM98.2718 33.1545C98.5244 33.1314 98.779 33.1653 99.0166 33.2536C99.2543 33.3419 99.4689 33.4824 99.6444 33.6645C99.9588 34.125 100.104 34.6794 100.055 35.2339V35.9636C100.105 36.5182 99.96 37.073 99.6444 37.533C99.471 37.7184 99.257 37.8616 99.0189 37.9514C98.7809 38.0412 98.5252 38.0752 98.2718 38.0508H94.8482V39.9497C94.8482 40.0988 94.7851 40.1695 94.6667 40.1695H93.7674C93.6412 40.1695 93.5781 40.0988 93.5781 39.9497V33.4526C93.5781 33.2486 93.6649 33.1545 93.8306 33.1545H98.2718Z" fill="#00AEE6"></path> <path d="M102.145 36.6933H105.301C105.41 36.7023 105.519 36.6872 105.621 36.6492C105.723 36.6113 105.816 36.5513 105.892 36.4736C106.024 36.277 106.085 36.042 106.066 35.8066V35.3908C106.085 35.1554 106.024 34.9204 105.892 34.7238C105.816 34.6466 105.723 34.5875 105.621 34.5508C105.518 34.5141 105.409 34.5008 105.301 34.5119H102.232C102.161 34.5119 102.13 34.5512 102.13 34.6296L102.145 36.6933ZM105.569 33.1544C105.82 33.1315 106.074 33.1654 106.31 33.2537C106.546 33.3421 106.76 33.4825 106.934 33.6645C107.25 34.1243 107.398 34.6785 107.352 35.2338V35.7988C107.375 36.2663 107.274 36.7317 107.06 37.1484C106.959 37.3164 106.821 37.4599 106.658 37.5685C106.494 37.6771 106.308 37.748 106.113 37.7762L107.533 39.8791C107.549 39.9276 107.549 39.9797 107.533 40.0282C107.533 40.0988 107.478 40.1302 107.399 40.1302H106.334C106.285 40.1458 106.233 40.1458 106.184 40.1302C106.147 40.1038 106.118 40.0688 106.097 40.0282L104.796 37.9723H102.122V39.9419C102.122 40.091 102.059 40.1616 101.94 40.1616H101.041C100.915 40.1616 100.852 40.091 100.852 39.9419V33.4526C100.852 33.2486 100.938 33.1544 101.104 33.1544H105.569Z" fill="#00AEE6"></path> <path d="M114.106 33.1531C114.232 33.1531 114.295 33.2237 114.295 33.3649V34.3065C114.295 34.4556 114.232 34.5263 114.106 34.5263H110.493C110.312 34.5234 110.132 34.5445 109.956 34.589C109.824 34.628 109.707 34.7043 109.617 34.8087C109.523 34.9304 109.461 35.0733 109.436 35.2246C109.404 35.4403 109.388 35.6579 109.388 35.8759V35.9779H114.066C114.185 35.9779 114.248 36.0485 114.248 36.1898V36.9744C114.248 37.1235 114.185 37.1941 114.066 37.1941H109.388V37.3589C109.388 37.5769 109.404 37.7946 109.436 38.0102C109.466 38.1731 109.539 38.3249 109.649 38.4496C109.736 38.5567 109.854 38.6336 109.988 38.6693C110.162 38.7177 110.343 38.7389 110.524 38.7321H114.137C114.264 38.7321 114.327 38.8106 114.327 38.9518V39.8934C114.327 40.0425 114.264 40.1131 114.137 40.1131H110.438C110.077 40.1213 109.718 40.0737 109.373 39.9719C109.098 39.8882 108.85 39.7339 108.655 39.5246C108.463 39.2968 108.325 39.0285 108.253 38.74C108.159 38.3414 108.117 37.9328 108.126 37.5237V35.766C108.117 35.3595 108.159 34.9535 108.253 34.5576C108.325 34.2691 108.463 34.0008 108.655 33.773C108.85 33.5614 109.098 33.4044 109.373 33.3179C109.718 33.2161 110.077 33.1684 110.438 33.1766L114.106 33.1531Z" fill="#00AEE6"></path> <path d="M116.891 33.1536H117.206C117.291 33.1752 117.369 33.2154 117.435 33.2713C117.508 33.3363 117.57 33.4133 117.617 33.4989C117.681 33.6222 117.733 33.7508 117.774 33.8834L119.502 38.6385C119.503 38.6516 119.507 38.6644 119.513 38.6761C119.519 38.6877 119.528 38.6979 119.538 38.706C119.548 38.7142 119.56 38.72 119.573 38.7233C119.586 38.7265 119.599 38.727 119.612 38.7248H119.715C119.742 38.7258 119.768 38.7178 119.789 38.7021C119.811 38.6864 119.826 38.664 119.833 38.6385L121.553 33.8834C121.594 33.7508 121.647 33.6222 121.711 33.4989C121.758 33.4133 121.819 33.3363 121.892 33.2713C121.959 33.2154 122.037 33.1752 122.121 33.1536H123.312C123.421 33.1384 123.532 33.1514 123.634 33.1913C123.736 33.2311 123.827 33.2965 123.896 33.3812C124.013 33.6255 124.065 33.8958 124.046 34.1658V39.8547C124.046 40.0038 123.983 40.0744 123.857 40.0744H123.012C122.886 40.0744 122.831 40.0038 122.831 39.8547V34.6994C122.831 34.6288 122.831 34.5974 122.76 34.5974H122.689C122.677 34.5952 122.664 34.5954 122.651 34.5982C122.639 34.6009 122.627 34.6061 122.617 34.6135C122.607 34.6208 122.598 34.6301 122.591 34.6408C122.585 34.6515 122.58 34.6634 122.579 34.6759L120.906 39.1171C120.849 39.2737 120.781 39.4258 120.701 39.5722C120.644 39.6827 120.569 39.7833 120.48 39.8704C120.401 39.9465 120.307 40.0053 120.204 40.043C120.088 40.0741 119.969 40.0899 119.849 40.0901H119.447C119.334 40.0817 119.222 40.0579 119.115 40.0195C119.012 39.9817 118.918 39.9229 118.839 39.8469C118.75 39.7598 118.676 39.6591 118.619 39.5487C118.539 39.4023 118.47 39.2501 118.413 39.0936L116.749 34.6759C116.747 34.6634 116.743 34.6515 116.736 34.6408C116.729 34.6301 116.721 34.6208 116.71 34.6135C116.7 34.6061 116.688 34.6009 116.676 34.5982C116.664 34.5954 116.651 34.5952 116.638 34.5974H116.567C116.52 34.5974 116.496 34.5974 116.496 34.6994V39.8704C116.496 40.0195 116.441 40.0901 116.315 40.0901H115.471C115.345 40.0901 115.282 40.0195 115.282 39.8704V34.1815C115.263 33.9115 115.314 33.6412 115.432 33.3969C115.503 33.3122 115.594 33.2469 115.698 33.2071C115.801 33.1673 115.913 33.1543 116.023 33.1693L116.891 33.1536Z" fill="#00AEE6"></path> <path d="M126.217 33.1531C126.335 33.1531 126.398 33.2237 126.398 33.3649V39.8699C126.398 40.019 126.335 40.0896 126.217 40.0896H125.317C125.191 40.0896 125.128 40.019 125.128 39.8699V33.3649C125.128 33.2237 125.191 33.1531 125.317 33.1531H126.217Z" fill="#00AEE6"></path> <path d="M128.583 33.1531C128.701 33.1531 128.764 33.2237 128.764 33.3649V37.2883C128.759 37.5093 128.778 37.7303 128.819 37.9474C128.842 38.0982 128.902 38.241 128.993 38.3633C129.077 38.473 129.197 38.5505 129.332 38.583C129.507 38.6314 129.688 38.6526 129.869 38.6458H132.156C132.337 38.6526 132.518 38.6314 132.693 38.583C132.826 38.5519 132.944 38.4739 133.024 38.3633C133.119 38.2423 133.182 38.0992 133.205 37.9474C133.237 37.7291 133.253 37.5089 133.253 37.2883V33.3649C133.253 33.2237 133.308 33.1531 133.434 33.1531H134.334C134.46 33.1531 134.515 33.2237 134.515 33.3649V37.4688C134.523 37.8774 134.483 38.2855 134.397 38.685C134.324 38.9735 134.186 39.2419 133.994 39.4697C133.798 39.6823 133.547 39.8371 133.269 39.917C132.92 40.0188 132.559 40.0664 132.196 40.0582H129.829C129.469 40.0664 129.11 40.0187 128.764 39.917C128.488 39.8358 128.24 39.6811 128.046 39.4697C127.851 39.2438 127.713 38.9747 127.644 38.685C127.548 38.2868 127.503 37.8782 127.51 37.4688V33.3649C127.51 33.2237 127.573 33.1531 127.699 33.1531H128.583Z" fill="#00AEE6"></path> <path d="M137.256 33.1516H137.572C137.656 33.1731 137.734 33.2133 137.801 33.2693C137.874 33.3343 137.935 33.4112 137.982 33.4968C138.046 33.6201 138.099 33.7488 138.14 33.8813L139.86 38.6364C139.867 38.662 139.882 38.6844 139.904 38.7C139.925 38.7157 139.951 38.7237 139.978 38.7227H140.081C140.136 38.7227 140.167 38.7227 140.191 38.6364L141.919 33.8813C141.96 33.7488 142.012 33.6201 142.076 33.4968C142.123 33.4112 142.185 33.3343 142.258 33.2693C142.322 33.215 142.398 33.1749 142.479 33.1516H143.678C143.786 33.14 143.896 33.1546 143.998 33.1942C144.099 33.2338 144.19 33.2973 144.261 33.3791C144.371 33.6255 144.42 33.8947 144.403 34.1638V39.8527C144.403 40.0018 144.34 40.0724 144.214 40.0724H143.37C143.252 40.0724 143.189 40.0018 143.189 39.8527V34.6974C143.189 34.6267 143.189 34.5954 143.126 34.5954H143.047C143.023 34.593 142.999 34.5999 142.98 34.6144C142.961 34.629 142.948 34.6502 142.944 34.6738L141.272 39.1151C141.215 39.2716 141.146 39.4237 141.067 39.5702C141.005 39.6776 140.931 39.7777 140.846 39.8684C140.767 39.9444 140.673 40.0032 140.57 40.041C140.451 40.0725 140.329 40.0884 140.207 40.0881H139.812C139.69 40.0884 139.568 40.0725 139.449 40.041C139.349 40.0022 139.258 39.9435 139.181 39.8684C139.092 39.7794 139.015 39.6792 138.952 39.5702C138.875 39.4236 138.81 39.2715 138.755 39.1151L137.083 34.6738C137.081 34.6614 137.077 34.6494 137.07 34.6387C137.063 34.628 137.055 34.6187 137.044 34.6114C137.034 34.6041 137.022 34.5989 137.01 34.5961C136.998 34.5934 136.985 34.5931 136.972 34.5954H136.901C136.854 34.5954 136.83 34.5954 136.83 34.6974V39.8684C136.83 40.0175 136.767 40.0881 136.649 40.0881H135.805C135.679 40.0881 135.616 40.0175 135.616 39.8684V34.1795C135.597 33.9094 135.648 33.6391 135.766 33.3948C135.835 33.3102 135.925 33.2448 136.027 33.2049C136.13 33.1651 136.241 33.1521 136.349 33.1672L137.256 33.1516Z" fill="#00AEE6"></path> <path d="M149.52 36.6619H152.676C152.786 36.6738 152.898 36.6602 153.002 36.6221C153.106 36.584 153.199 36.5224 153.275 36.4422C153.403 36.2439 153.464 36.0103 153.449 35.7752V35.3986C153.464 35.166 153.403 34.9349 153.275 34.7395C153.199 34.6593 153.106 34.5977 153.002 34.5596C152.898 34.5215 152.786 34.5079 152.676 34.5198H149.615C149.544 34.5198 149.505 34.5198 149.505 34.6375L149.52 36.6619ZM152.952 33.1544C153.203 33.1315 153.457 33.1654 153.693 33.2537C153.93 33.3421 154.143 33.4825 154.317 33.6645C154.631 34.125 154.776 34.6793 154.727 35.2338V35.9636C154.777 36.5182 154.632 37.0729 154.317 37.5329C154.145 37.7182 153.932 37.8614 153.695 37.9512C153.459 38.0411 153.204 38.0752 152.952 38.0508H149.52V39.9497C149.52 40.0988 149.465 40.1694 149.339 40.1694H148.448C148.321 40.1694 148.258 40.0988 148.258 39.9497V33.4526C148.258 33.2486 148.337 33.1544 148.503 33.1544H152.952Z" fill="#00AEE6"></path> <path d="M156.814 36.6933H159.97C160.079 36.7059 160.189 36.6925 160.292 36.6543C160.395 36.6161 160.487 36.5542 160.561 36.4736C160.695 36.2777 160.759 36.0429 160.743 35.8067V35.3908C160.759 35.1545 160.695 34.9197 160.561 34.7238C160.486 34.6457 160.393 34.5859 160.29 34.5492C160.188 34.5124 160.078 34.4997 159.97 34.512H156.909C156.83 34.512 156.798 34.5512 156.798 34.6297L156.814 36.6933ZM160.238 33.1545C160.49 33.1314 160.745 33.1653 160.983 33.2536C161.22 33.3419 161.435 33.4824 161.61 33.6645C161.925 34.125 162.07 34.6794 162.021 35.2339V35.7988C162.044 36.2663 161.943 36.7317 161.729 37.1485C161.629 37.3159 161.493 37.4591 161.331 37.5676C161.168 37.6762 160.984 37.7475 160.79 37.7762L162.202 39.8791C162.214 39.9022 162.22 39.9278 162.22 39.9537C162.22 39.9796 162.214 40.0051 162.202 40.0282C162.202 40.043 162.199 40.0577 162.193 40.0712C162.187 40.0848 162.178 40.0968 162.167 40.1065C162.155 40.1162 162.142 40.1234 162.128 40.1275C162.114 40.1316 162.099 40.1325 162.084 40.1302H161.003C160.954 40.1458 160.902 40.1458 160.853 40.1302C160.82 40.1018 160.793 40.0671 160.774 40.0282L159.465 37.9724H156.791V39.9419C156.791 40.091 156.727 40.1616 156.609 40.1616H155.71C155.584 40.1616 155.521 40.091 155.521 39.9419V33.4526C155.521 33.2486 155.607 33.1545 155.773 33.1545H160.238Z" fill="#00AEE6"></path> <path d="M164.079 37.3596C164.077 37.5779 164.096 37.7959 164.134 38.0109C164.158 38.1626 164.221 38.3057 164.316 38.4268C164.402 38.5309 164.517 38.6074 164.647 38.6465C164.821 38.6949 165.002 38.716 165.183 38.7092H167.645C167.823 38.716 168.001 38.6948 168.173 38.6465C168.307 38.6107 168.425 38.5338 168.512 38.4268C168.603 38.3032 168.665 38.1611 168.694 38.0109C168.725 37.7952 168.741 37.5775 168.741 37.3596V35.8766C168.741 35.6586 168.725 35.4409 168.694 35.2253C168.661 35.0761 168.6 34.9348 168.512 34.8094C168.423 34.705 168.305 34.6286 168.173 34.5897C168.001 34.5452 167.823 34.5241 167.645 34.5269H165.183C165.003 34.524 164.822 34.5452 164.647 34.5897C164.518 34.6308 164.403 34.7069 164.316 34.8094C164.222 34.9311 164.159 35.0739 164.134 35.2253C164.096 35.4403 164.077 35.6583 164.079 35.8766V37.3596ZM167.692 33.1537C168.055 33.1455 168.417 33.1932 168.765 33.295C169.041 33.3784 169.29 33.5358 169.483 33.7501C169.678 33.976 169.816 34.245 169.885 34.5348C169.978 34.9306 170.021 35.3367 170.011 35.7432V37.4459C170.02 37.855 169.978 38.2636 169.885 38.6622C169.816 38.9519 169.678 39.2209 169.483 39.4468C169.289 39.6582 169.041 39.8129 168.765 39.8941C168.417 39.9959 168.055 40.0436 167.692 40.0353H165.136C164.773 40.0436 164.411 39.9959 164.063 39.8941C163.79 39.8116 163.545 39.657 163.353 39.4468C163.156 39.2214 163.015 38.9524 162.943 38.6622C162.85 38.2636 162.807 37.855 162.817 37.4459V35.7667C162.807 35.3602 162.85 34.9542 162.943 34.5583C163.015 34.2681 163.156 33.9991 163.353 33.7736C163.544 33.5606 163.789 33.4032 164.063 33.3185C164.411 33.2167 164.773 33.169 165.136 33.1773L167.692 33.1537Z" fill="#00AEE6"></path> <path d="M172.319 36.6619H175.475C175.584 36.6744 175.694 36.6611 175.797 36.6229C175.9 36.5847 175.992 36.5228 176.066 36.4422C176.198 36.2456 176.259 36.0106 176.24 35.7752V35.3986C176.262 35.1654 176.201 34.9318 176.066 34.7395C175.992 34.6589 175.9 34.597 175.797 34.5588C175.694 34.5206 175.584 34.5072 175.475 34.5198H172.406C172.335 34.5198 172.304 34.5198 172.304 34.6375L172.319 36.6619ZM175.743 33.1544C175.994 33.1315 176.248 33.1654 176.484 33.2537C176.721 33.3421 176.934 33.4825 177.108 33.6645C177.424 34.1243 177.572 34.6785 177.526 35.2338V35.9636C177.573 36.519 177.425 37.0737 177.108 37.5329C176.936 37.7182 176.723 37.8614 176.486 37.9512C176.25 38.0411 175.995 38.0752 175.743 38.0508H172.319V39.9497C172.319 40.0988 172.256 40.1694 172.138 40.1694H171.239C171.112 40.1694 171.049 40.0988 171.049 39.9497V33.4526C171.049 33.2486 171.136 33.1544 171.302 33.1544H175.743Z" fill="#00AEE6"></path> <path d="M184.235 33.1508C184.362 33.1508 184.425 33.2215 184.425 33.3627V34.3043C184.425 34.4534 184.362 34.524 184.235 34.524H180.646C180.468 34.5212 180.29 34.5423 180.118 34.5868C179.986 34.6257 179.868 34.7021 179.778 34.8065C179.683 34.9275 179.621 35.0706 179.597 35.2224C179.565 35.438 179.549 35.6557 179.55 35.8737V35.9757H184.228C184.346 35.9757 184.409 36.0463 184.409 36.1875V36.9722C184.409 37.1213 184.346 37.1919 184.228 37.1919H179.55V37.3567C179.549 37.5746 179.565 37.7923 179.597 38.008C179.621 38.1597 179.683 38.3028 179.778 38.4238C179.863 38.5335 179.983 38.611 180.118 38.6436C180.289 38.6919 180.468 38.7131 180.646 38.7063H184.267C184.393 38.7063 184.456 38.7848 184.456 38.926V39.8676C184.456 40.0167 184.393 40.0874 184.267 40.0874H180.646C180.286 40.0955 179.927 40.0479 179.581 39.9461C179.305 39.8649 179.057 39.7102 178.863 39.4988C178.668 39.2729 178.53 39.0039 178.461 38.7142C178.365 38.3159 178.32 37.9073 178.327 37.4979V35.7638C178.309 35.3475 178.347 34.9307 178.437 34.524C178.507 34.2343 178.645 33.9652 178.84 33.7393C179.033 33.5251 179.281 33.3676 179.558 33.2842C179.903 33.1825 180.262 33.1348 180.623 33.143L184.235 33.1508Z" fill="#00AEE6"></path> <path d="M186.639 36.6933H189.795C189.905 36.7035 190.016 36.689 190.119 36.651C190.223 36.613 190.317 36.5524 190.394 36.4736C190.526 36.277 190.587 36.042 190.568 35.8066V35.3908C190.587 35.1554 190.526 34.9204 190.394 34.7238C190.316 34.6464 190.222 34.5873 190.118 34.5506C190.015 34.514 189.904 34.5008 189.795 34.5119H186.734C186.663 34.5119 186.623 34.5512 186.623 34.6296L186.639 36.6933ZM190.11 33.1544C190.362 33.1315 190.615 33.1654 190.851 33.2537C191.088 33.3421 191.301 33.4825 191.475 33.6645C191.791 34.1243 191.939 34.6785 191.893 35.2338V35.7988C191.916 36.2663 191.815 36.7317 191.601 37.1484C191.499 37.3153 191.361 37.458 191.197 37.5664C191.034 37.6748 190.849 37.7464 190.654 37.7762L192.074 39.8791C192.09 39.9276 192.09 39.9797 192.074 40.0282C192.069 40.0586 192.052 40.0859 192.027 40.1048C192.002 40.1236 191.971 40.1326 191.94 40.1302H190.899C190.85 40.1458 190.798 40.1458 190.749 40.1302C190.712 40.1038 190.682 40.0688 190.662 40.0282L189.321 37.9017H186.639V39.8712C186.639 40.0203 186.584 40.0909 186.458 40.0909H185.566C185.44 40.0909 185.377 40.0203 185.377 39.8712V33.4526C185.377 33.2486 185.456 33.1544 185.621 33.1544H190.11Z" fill="#00AEE6"></path> <path d="M199.079 33.1531C199.205 33.1531 199.268 33.2237 199.268 33.3649V34.3379C199.268 34.4949 199.205 34.5655 199.079 34.5655H196.476V39.8699C196.476 40.019 196.42 40.0896 196.294 40.0896H195.395C195.269 40.0896 195.213 40.019 195.213 39.8699V34.5655H192.61C192.484 34.5655 192.421 34.4949 192.421 34.3379V33.3649C192.421 33.2237 192.484 33.1531 192.61 33.1531H199.079Z" fill="#00AEE6"></path> <path d="M201.089 33.1531C201.207 33.1531 201.27 33.2237 201.27 33.3649V39.8699C201.27 40.019 201.207 40.0896 201.089 40.0896H200.189C200.063 40.0896 200 40.019 200 39.8699V33.3649C200 33.2237 200.063 33.1531 200.189 33.1531H201.089Z" fill="#00AEE6"></path> <path d="M208.258 33.1508C208.384 33.1508 208.447 33.2215 208.447 33.3627V34.3043C208.447 34.4534 208.384 34.524 208.258 34.524H204.637C204.456 34.5211 204.276 34.5423 204.101 34.5868C203.97 34.6294 203.854 34.7052 203.762 34.8065C203.673 34.9305 203.614 35.0726 203.588 35.2224C203.556 35.438 203.541 35.6557 203.541 35.8737V35.9757H208.274C208.392 35.9757 208.455 36.0463 208.455 36.1875V36.9722C208.455 37.1213 208.392 37.1919 208.274 37.1919H203.541V37.3567C203.541 37.5746 203.556 37.7923 203.588 38.008C203.611 38.1587 203.67 38.3015 203.762 38.4238C203.851 38.5283 203.969 38.6046 204.101 38.6436C204.275 38.6919 204.456 38.7131 204.637 38.7063H208.258C208.384 38.7063 208.447 38.7848 208.447 38.926V39.8676C208.447 40.0167 208.384 40.0874 208.258 40.0874H204.614C204.253 40.0955 203.894 40.0479 203.549 39.9461C203.273 39.8649 203.025 39.7102 202.831 39.4988C202.633 39.2734 202.493 39.0044 202.421 38.7142C202.331 38.315 202.289 37.9068 202.294 37.4979V35.7638C202.287 35.347 202.329 34.9308 202.421 34.524C202.493 34.2338 202.633 33.9648 202.831 33.7393C203.024 33.5251 203.272 33.3676 203.549 33.2842C203.894 33.1825 204.253 33.1348 204.614 33.143L208.258 33.1508Z" fill="#00AEE6"></path> <path d="M215.162 33.1541C215.281 33.1541 215.344 33.2247 215.344 33.366V34.3076C215.344 34.4567 215.281 34.5273 215.162 34.5273H211.013C210.948 34.5226 210.884 34.5337 210.825 34.5597C210.765 34.5857 210.714 34.6258 210.674 34.6764C210.606 34.8013 210.573 34.9424 210.579 35.0844V35.4218C210.579 35.7906 210.721 35.9789 211.005 35.9789H214.113C214.315 35.9634 214.518 35.9951 214.706 36.0714C214.893 36.1476 215.061 36.2665 215.194 36.4184C215.46 36.784 215.589 37.2313 215.557 37.6817V38.4664C215.575 38.8849 215.45 39.2972 215.202 39.6355C215.065 39.7902 214.894 39.9112 214.703 39.9888C214.511 40.0664 214.304 40.0986 214.097 40.0828H209.506C209.38 40.0828 209.317 40.0122 209.317 39.8631V38.9215C209.317 38.7802 209.38 38.7018 209.506 38.7018H213.853C213.918 38.7104 213.984 38.7011 214.044 38.6748C214.103 38.6485 214.155 38.6062 214.192 38.5527C214.269 38.4339 214.305 38.2934 214.295 38.1525V37.7445C214.295 37.3757 214.153 37.1873 213.861 37.1873H210.761C210.557 37.2017 210.354 37.1695 210.165 37.0933C209.976 37.0172 209.808 36.899 209.672 36.7479C209.406 36.3823 209.277 35.935 209.309 35.4846V34.7627C209.285 34.3411 209.411 33.9246 209.664 33.5857C209.803 33.4327 209.976 33.3136 210.169 33.2374C210.362 33.1612 210.569 33.13 210.776 33.1463L215.162 33.1541Z" fill="#00AEE6"></path> </svg> 